<?xml version="1.0" encoding="UTF-8"?>
<svg width="816" height="1056" viewBox="0 0 816 1056" xmlns="http://www.w3.org/2000/svg">
  <!-- Letter size: 8.5" x 11" at 96 DPI -->
  <defs>
    <style>
      .title { font-family: 'Georgia', serif; font-size: 36px; font-weight: bold; fill: #2c3e50; }
      .subtitle { font-family: 'Georgia', serif; font-size: 14px; fill: #5a6c7d; font-style: italic; }
      .section-number { font-family: 'Arial', sans-serif; font-size: 20px; font-weight: bold; fill: white; }
      .section-title { font-family: 'Arial', sans-serif; font-size: 16px; font-weight: bold; fill: #2c3e50; }
      .body-text { font-family: 'Arial', sans-serif; font-size: 11px; fill: #2c3e50; line-height: 1.4; }
      .body-text-small { font-family: 'Arial', sans-serif; font-size: 10px; fill: #2c3e50; }
      .highlight { font-family: 'Arial', sans-serif; font-size: 11px; font-weight: bold; fill: #2c3e50; }
      .flow-text { font-family: 'Arial', sans-serif; font-size: 14px; font-weight: bold; fill: #2c3e50; }
      .footer-text { font-family: 'Arial', sans-serif; font-size: 12px; fill: #2c3e50; }
    </style>
  </defs>
  
  <!-- Background -->
  <rect width="816" height="1056" fill="#fafaf8"/>
  
  <!-- Header Section -->
  <rect x="20" y="20" width="776" height="100" fill="#e8f5e9" rx="8"/>
  <text x="408" y="55" class="title" text-anchor="middle">"Zero-Knowledge" Password Managers</text>
  <text x="408" y="75" class="title" text-anchor="middle">What IT Leaders Must Know in 2026</text>
  <text x="408" y="100" class="subtitle" text-anchor="middle">A structured guide to hardening your credential security posture.</text>
  
  <!-- Flow Bar -->
  <rect x="150" y="135" width="516" height="35" fill="#4CAF50" rx="17.5"/>
  <text x="220" y="158" class="flow-text" fill="white">🔐 Vault</text>
  <text x="408" y="158" class="flow-text" fill="white" text-anchor="middle">⚠️ Threat</text>
  <text x="580" y="158" class="flow-text" fill="white">🛡️ Hardened</text>
  
  <!-- Box 1: The Research Finding -->
  <rect x="20" y="190" width="245" height="180" fill="#e8f5e9" rx="8" stroke="#4CAF50" stroke-width="2"/>
  <circle cx="45" cy="210" r="15" fill="#4CAF50"/>
  <text x="45" y="217" class="section-number" text-anchor="middle">1</text>
  <text x="70" y="217" class="section-title">The Research Finding</text>
  
  <text x="35" y="240" class="section-title" font-size="13">A 2026 Study Changed the</text>
  <text x="35" y="255" class="section-title" font-size="13">Conversation</text>
  
  <text x="35" y="275" class="body-text">🟨 Who studied it?</text>
  <text x="45" y="290" class="body-text-small">ETH Zurich + Università della</text>
  <text x="45" y="302" class="body-text-small">Svizzera italiana</text>
  
  <text x="35" y="320" class="body-text">🟨 What they found?</text>
  <text x="45" y="335" class="body-text-small">27 attack scenarios across major</text>
  <text x="45" y="347" class="body-text-small">password managers</text>
  
  <text x="35" y="365" class="body-text" font-style="italic" font-size="9">If the vendor infrastructure is fully compromised,</text>
  <text x="35" y="377" class="body-text" font-style="italic" font-size="9">"zero-knowledge" doesn't always hold.</text>

  <!-- Box 2: The Threat Triangle -->
  <rect x="285" y="190" width="245" height="180" fill="#FFF9C4" rx="8" stroke="#F5C842" stroke-width="2"/>
  <circle cx="310" cy="210" r="15" fill="#F5C842"/>
  <text x="310" y="217" class="section-number" text-anchor="middle">2</text>
  <text x="335" y="217" class="section-title">The Positioning Triangle</text>
  
  <text x="300" y="240" class="section-title" font-size="12">Three Conditions That Break</text>
  <text x="300" y="255" class="section-title" font-size="12">"Zero-Knowledge"</text>
  
  <!-- Three overlapping circles -->
  <circle cx="370" cy="295" r="28" fill="none" stroke="#F5C842" stroke-width="2"/>
  <circle cx="410" cy="295" r="28" fill="none" stroke="#F5C842" stroke-width="2"/>
  <circle cx="390" cy="325" r="28" fill="none" stroke="#F5C842" stroke-width="2"/>
  
  <text x="355" y="285" class="body-text-small" font-size="8">Account</text>
  <text x="355" y="295" class="body-text-small" font-size="8">Recovery</text>
  
  <text x="405" y="285" class="body-text-small" font-size="8">Sharing &</text>
  <text x="410" y="295" class="body-text-small" font-size="8">Org</text>
  
  <text x="375" y="335" class="body-text-small" font-size="8">Metadata</text>
  <text x="375" y="345" class="body-text-small" font-size="8">Downgrade</text>
  
  <text x="295" y="365" class="body-text-small" font-style="italic" font-size="9">If one of these is exploited under a malicious server</text>
  <text x="295" y="377" class="body-text-small" font-style="italic" font-size="9">model, your vault isn't truly zero-knowledge.</text>
  
  <!-- Box 3: The Attack Surface Map -->
  <rect x="550" y="190" width="245" height="180" fill="#F3E5F5" rx="8" stroke="#CE93D8" stroke-width="2"/>
  <circle cx="575" cy="210" r="15" fill="#CE93D8"/>
  <text x="575" y="217" class="section-number" text-anchor="middle">3</text>
  <text x="600" y="217" class="section-title">The Attack Surface Map</text>
  
  <text x="565" y="240" class="body-text-small" font-size="11">You're Not Protecting One Thing.</text>
  <text x="565" y="253" class="body-text-small" font-size="11">You're Protecting Three Layers:</text>
  
  <!-- Concentric circles -->
  <circle cx="672" cy="300" r="50" fill="none" stroke="#CE93D8" stroke-width="2"/>
  <circle cx="672" cy="300" r="35" fill="none" stroke="#CE93D8" stroke-width="1.5"/>
  <circle cx="672" cy="300" r="20" fill="none" stroke="#CE93D8" stroke-width="1"/>
  
  <text x="565" y="350" class="body-text-small">▶ Crown-Jewel Secrets</text>
  <text x="565" y="362" class="body-text-small">▶ Shared Org Vaults</text>
  <text x="565" y="374" class="body-text-small">▶ Recovery & Metadata</text>
  
  <!-- Box 4: The Security OS -->
  <rect x="20" y="390" width="245" height="200" fill="#FFF9C4" rx="8" stroke="#F5C842" stroke-width="2"/>
  <circle cx="45" cy="410" r="15" fill="#F5C842"/>
  <text x="45" y="417" class="section-number" text-anchor="middle">4</text>
  <text x="70" y="417" class="section-title">The Security OS</text>
  
  <text x="35" y="435" class="body-text-small" font-size="10">This is how I structure every</text>
  <text x="35" y="447" class="body-text-small" font-size="10">credential security review.</text>
  
  <rect x="35" y="460" width="215" height="20" fill="#4CAF50" rx="3"/>
  <text x="42" y="474" class="body-text-small" fill="white" font-weight="bold">YOU NEED FOUR CONTROLS:</text>
  
  <text x="35" y="495" class="highlight">1 AUTHENTICATE</text>
  <text x="45" y="508" class="body-text-small">Argon2id KDF + FIDO2 hardware MFA</text>
  
  <text x="35" y="525" class="highlight">2 ISOLATE</text>
  <text x="45" y="538" class="body-text-small">Separate high-sensitivity secrets</text>
  
  <text x="35" y="555" class="highlight">3 RECOVER SAFELY</text>
  <text x="45" y="568" class="body-text-small">Minimize cloud-assisted recovery</text>
  
  <text x="35" y="585" class="body-text-small" font-style="italic" font-size="9">When all four are in place, your posture</text>
  <text x="35" y="597" class="body-text-small" font-style="italic" font-size="9">becomes predictable (in a good way).</text>

  <!-- Box 5: The Hardening Engine (Full Width) -->
  <rect x="285" y="390" width="510" height="200" fill="#FFE0B2" rx="8" stroke="#FF9800" stroke-width="2"/>
  <circle cx="310" cy="410" r="15" fill="#FF9800"/>
  <text x="310" y="417" class="section-number" text-anchor="middle">5</text>
  <text x="335" y="417" class="section-title">The Hardening Engine</text>
  
  <text x="300" y="435" class="body-text" font-weight="bold" font-size="10">THIS IS THE SYSTEM I USE WITH STARTUPS & AI-DRIVEN TEAMS</text>
  
  <!-- Four columns -->
  <rect x="295" y="450" width="115" height="25" fill="#4CAF50" rx="3"/>
  <text x="352" y="467" class="body-text-small" fill="white" font-weight="bold" text-anchor="middle">Step 1 — Assess</text>
  <text x="352" y="480" class="body-text-small" text-anchor="middle">(30 min)</text>
  <text x="300" y="495" class="body-text-small" font-size="9">Audit KDF settings,</text>
  <text x="300" y="506" class="body-text-small" font-size="9">MFA type, recovery</text>
  <text x="300" y="517" class="body-text-small" font-size="9">options</text>
  
  <rect x="420" y="450" width="115" height="25" fill="#4CAF50" rx="3"/>
  <text x="477" y="467" class="body-text-small" fill="white" font-weight="bold" text-anchor="middle">Step 2 — Configure</text>
  <text x="477" y="480" class="body-text-small" text-anchor="middle">(2 hrs)</text>
  <text x="425" y="495" class="body-text-small" font-size="9">Apply Argon2id,</text>
  <text x="425" y="506" class="body-text-small" font-size="9">enroll FIDO2 keys,</text>
  <text x="425" y="517" class="body-text-small" font-size="9">restrict sharing</text>
  
  <rect x="545" y="450" width="115" height="25" fill="#4CAF50" rx="3"/>
  <text x="602" y="467" class="body-text-small" fill="white" font-weight="bold" text-anchor="middle">Step 3 — Test</text>
  <text x="602" y="480" class="body-text-small" text-anchor="middle">(weekly)</text>
  <text x="550" y="495" class="body-text-small" font-size="9">Simulate recovery</text>
  <text x="550" y="506" class="body-text-small" font-size="9">flow, verify no</text>
  <text x="550" y="517" class="body-text-small" font-size="9">cloud bypass</text>
  
  <rect x="670" y="450" width="115" height="25" fill="#4CAF50" rx="3"/>
  <text x="727" y="467" class="body-text-small" fill="white" font-weight="bold" text-anchor="middle">Step 4 — Review</text>
  <text x="727" y="480" class="body-text-small" text-anchor="middle">(monthly)</text>
  <text x="675" y="495" class="body-text-small" font-size="9">Check sharing</text>
  <text x="675" y="506" class="body-text-small" font-size="9">permissions, rotate</text>
  <text x="675" y="517" class="body-text-small" font-size="9">crown-jewel secrets</text>
  
  <rect x="295" y="530" width="490" height="50" fill="#FFECB3" rx="5"/>
  <text x="540" y="550" class="body-text" font-weight="bold" text-anchor="middle" font-size="11">WHEN YOU FOLLOW THIS RHYTHM, YOUR CREDENTIAL</text>
  <text x="540" y="565" class="body-text" font-weight="bold" text-anchor="middle" font-size="11">SECURITY COMPOUNDS AUTOMATICALLY.</text>
  
  <!-- Box 6: The Trust Ladder -->
  <rect x="20" y="610" width="245" height="200" fill="#FCE4EC" rx="8" stroke="#F48FB1" stroke-width="2"/>
  <circle cx="45" cy="630" r="15" fill="#F48FB1"/>
  <text x="45" y="637" class="section-number" text-anchor="middle">6</text>
  <text x="70" y="637" class="section-title">The Trust Ladder</text>
  
  <text x="35" y="655" class="body-text-small" font-size="11">"Zero-Knowledge" Trust Is Built</text>
  <text x="35" y="668" class="body-text-small" font-size="11">in 5 Layers:</text>
  
  <!-- Pyramid -->
  <polygon points="132,695 90,750 174,750" fill="none" stroke="#F48FB1" stroke-width="2"/>
  <line x1="98" y1="739" x2="166" y2="739" stroke="#F48FB1" stroke-width="1.5"/>
  <line x1="106" y1="728" x2="158" y2="728" stroke="#F48FB1" stroke-width="1.5"/>
  <line x1="114" y1="717" x2="150" y2="717" stroke="#F48FB1" stroke-width="1.5"/>
  <line x1="122" y1="706" x2="142" y2="706" stroke="#F48FB1" stroke-width="1.5"/>
  
  <text x="35" y="770" class="body-text-small" font-size="9">▲ 5 — Peppered Secrets</text>
  <text x="35" y="781" class="body-text-small" font-size="9">▲ 4 — Self-Hosted Option</text>
  <text x="35" y="792" class="body-text-small" font-size="9">▲ 3 — Hardware MFA (FIDO2)</text>
  <text x="35" y="803" class="body-text-small" font-size="9">▲ 2 — Strong KDF (Argon2id)</text>
  
  <!-- Box 7: The Feedback Loop -->
  <rect x="285" y="610" width="245" height="200" fill="#E0F2F1" rx="8" stroke="#4DB6AC" stroke-width="2"/>
  <circle cx="310" cy="630" r="15" fill="#4DB6AC"/>
  <text x="310" y="637" class="section-number" text-anchor="middle">7</text>
  <text x="335" y="637" class="section-title">The Content Feedback Loop</text>
  
  <text x="300" y="655" class="body-text-small" font-size="10">Your threat model will always tell</text>
  <text x="300" y="667" class="body-text-small" font-size="10">you what to fix next.</text>
  <text x="300" y="679" class="body-text-small" font-size="10" font-weight="bold">Most people don't listen.</text>
  
  <rect x="295" y="690" width="225" height="20" fill="#4DB6AC" rx="3"/>
  <text x="407" y="704" class="body-text-small" fill="white" font-weight="bold" text-anchor="middle">EACH QUARTER, ANALYSE:</text>
  
  <text x="300" y="725" class="body-text-small" font-size="9">▶ Has your vendor had any security</text>
  <text x="305" y="737" class="body-text-small" font-size="9">incidents or disclosures?</text>
  
  <text x="300" y="752" class="body-text-small" font-size="9">▶ Are any shared vaults larger than</text>
  <text x="305" y="764" class="body-text-small" font-size="9">they need to be?</text>
  
  <text x="300" y="779" class="body-text-small" font-size="9">▶ Is cloud-assisted recovery still</text>
  <text x="305" y="791" class="body-text-small" font-size="9">enabled unnecessarily?</text>
  
  <rect x="295" y="800" width="225" height="5" fill="#4DB6AC" rx="2.5"/>

  <!-- Box 8: The 3-Level Risk Funnel -->
  <rect x="550" y="610" width="245" height="200" fill="#F3E5F5" rx="8" stroke="#CE93D8" stroke-width="2"/>
  <circle cx="575" cy="630" r="15" fill="#CE93D8"/>
  <text x="575" y="637" class="section-number" text-anchor="middle">8</text>
  <text x="600" y="637" class="section-title">The 3-Level Risk Funnel</text>
  
  <text x="565" y="655" class="body-text-small" font-size="10">A strong security posture is built</text>
  <text x="565" y="667" class="body-text-small" font-size="10">to withstand compromise — not</text>
  <text x="565" y="679" class="body-text-small" font-size="10">just prevent it.</text>
  
  <!-- Funnel -->
  <polygon points="620,695 740,695 730,730 630,730" fill="none" stroke="#CE93D8" stroke-width="2"/>
  <polygon points="630,730 730,730 720,765 640,765" fill="none" stroke="#CE93D8" stroke-width="2"/>
  <polygon points="640,765 720,765 710,800 650,800" fill="none" stroke="#CE93D8" stroke-width="2"/>
  
  <text x="565" y="710" class="body-text-small" font-size="9" font-weight="bold">TOP</text>
  <text x="565" y="722" class="body-text-small" font-size="8">Preventive controls</text>
  
  <text x="565" y="745" class="body-text-small" font-size="9" font-weight="bold">MIDDLE</text>
  <text x="565" y="757" class="body-text-small" font-size="8">Containment controls</text>
  
  <text x="565" y="780" class="body-text-small" font-size="9" font-weight="bold">BOTTOM</text>
  <text x="565" y="792" class="body-text-small" font-size="8">Recovery controls</text>
  
  <!-- Box 9: The Security Scorecard -->
  <rect x="20" y="830" width="775" height="160" fill="#E8F5E9" rx="8" stroke="#4CAF50" stroke-width="2"/>
  <circle cx="45" cy="850" r="15" fill="#4CAF50"/>
  <text x="45" y="857" class="section-number" text-anchor="middle">9</text>
  <text x="70" y="857" class="section-title">The Security Scorecard</text>
  
  <text x="35" y="875" class="body-text-small" font-size="11">Don't get overwhelmed. Track 5 things only:</text>
  
  <!-- Scorecard Table -->
  <rect x="200" y="890" width="420" height="85" fill="white" rx="5" stroke="#4CAF50" stroke-width="1"/>
  
  <!-- Header -->
  <rect x="200" y="890" width="300" height="25" fill="#4CAF50" rx="5 5 0 0"/>
  <text x="350" y="907" class="body-text-small" fill="white" font-weight="bold" text-anchor="middle">Metric</text>
  <rect x="500" y="890" width="120" height="25" fill="#4CAF50" rx="0 5 0 0"/>
  <text x="560" y="907" class="body-text-small" fill="white" font-weight="bold" text-anchor="middle">Status</text>
  
  <!-- Rows -->
  <line x1="200" y1="915" x2="620" y2="915" stroke="#e0e0e0" stroke-width="1"/>
  <text x="210" y="930" class="body-text-small">KDF = Argon2id?</text>
  <text x="560" y="930" class="body-text-small" text-anchor="middle">✅ / ❌</text>
  
  <line x1="200" y1="937" x2="620" y2="937" stroke="#e0e0e0" stroke-width="1"/>
  <text x="210" y="952" class="body-text-small">FIDO2 MFA enforced?</text>
  <text x="560" y="952" class="body-text-small" text-anchor="middle">✅ / ❌</text>
  
  <line x1="200" y1="959" x2="620" y2="959" stroke="#e0e0e0" stroke-width="1"/>
  <text x="210" y="974" class="body-text-small">Cloud recovery disabled?</text>
  <text x="560" y="974" class="body-text-small" text-anchor="middle">✅ / ❌</text>
  
  <text x="35" y="1010" class="body-text-small" font-style="italic" font-size="10">If they tick green, your posture is solid. If not — you know exactly where to start.</text>
  
  <!-- Footer CTA -->
  <rect x="20" y="1010" width="775" height="30" fill="#4CAF50" rx="5"/>
  <text x="408" y="1030" class="footer-text" fill="white" text-anchor="middle">📎 Found this useful? Save it, repost it, or drop a comment — I read everything.</text>
  
</svg>
