<?xml version="1.0" encoding="UTF-8"?>
<svg width="816" height="2100" viewBox="0 0 816 2100" xmlns="http://www.w3.org/2000/svg">
  <defs>
    <style>
      .title { font-family: 'Georgia', serif; font-size: 28px; font-weight: bold; fill: #2c3e50; }
      .subtitle { font-family: 'Arial', sans-serif; font-size: 11px; fill: #5a6c7d; font-style: italic; }
      .section-number { font-family: 'Arial', sans-serif; font-size: 16px; font-weight: bold; fill: white; }
      .section-title { font-family: 'Arial', sans-serif; font-size: 13px; font-weight: bold; fill: #2c3e50; }
      .body-text { font-family: 'Arial', sans-serif; font-size: 9.5px; fill: #2c3e50; }
      .body-text-bold { font-family: 'Arial', sans-serif; font-size: 9.5px; font-weight: bold; fill: #2c3e50; }
      .flow-text { font-family: 'Arial', sans-serif; font-size: 11px; font-weight: bold; }
    </style>
  </defs>
  
  <!-- Background -->
  <rect width="816" height="2100" fill="#fafaf8"/>
  
  <!-- Header -->
  <text x="408" y="35" class="title" text-anchor="middle">Zero-Knowledge Password Managers</text>
  <text x="408" y="52" class="subtitle" text-anchor="middle">What IT Leaders Must Know in 2026</text>
  <text x="408" y="67" class="subtitle" text-anchor="middle">A structured guide to hardening your credential security posture</text>
  
  <!-- Flow Bar -->
  <g transform="translate(220, 85)">
    <rect x="0" y="0" width="100" height="28" fill="#a8d5ba" rx="14"/>
    <text x="50" y="18" class="flow-text" text-anchor="middle" fill="white">🔐 Vault</text>
    
    <path d="M 100 14 L 120 14" stroke="#666" stroke-width="2" marker-end="url(#arrow)"/>
    
    <rect x="120" y="0" width="100" height="28" fill="#ffd966" rx="14"/>
    <text x="170" y="18" class="flow-text" text-anchor="middle" fill="#2c3e50">⚠️ Threat</text>
    
    <path d="M 220 14 L 240 14" stroke="#666" stroke-width="2" marker-end="url(#arrow)"/>
    
    <rect x="240" y="0" width="120" height="28" fill="#a8d5ba" rx="14"/>
    <text x="300" y="18" class="flow-text" text-anchor="middle" fill="white">🛡️ Hardened</text>
  </g>
  
  <defs>
    <marker id="arrow" markerWidth="8" markerHeight="8" refX="7" refY="3" orient="auto">
      <polygon points="0 0, 8 3, 0 6" fill="#666"/>
    </marker>
  </defs>

  <!-- Box 1: Research Finding (Light Green) -->
  <rect x="20" y="135" width="240" height="220" fill="#d4edda" rx="8" stroke="#a8d5ba" stroke-width="2"/>
  <circle cx="38" cy="152" r="11" fill="#6c9a7f"/>
  <text x="38" y="157" class="section-number" text-anchor="middle" font-size="13">1</text>
  <text x="56" y="157" class="section-title">The Research Finding</text>
  
  <text x="30" y="178" class="section-title" font-size="11">A 2026 Study Changed the</text>
  <text x="30" y="191" class="section-title" font-size="11">Conversation</text>
  
  <!-- Document icon -->
  <g transform="translate(180, 170)">
    <rect x="0" y="0" width="45" height="55" fill="#a8d5ba" rx="3"/>
    <line x1="8" y1="10" x2="37" y2="10" stroke="white" stroke-width="2"/>
    <line x1="8" y1="20" x2="37" y2="20" stroke="white" stroke-width="2"/>
    <line x1="8" y1="30" x2="37" y2="30" stroke="white" stroke-width="2"/>
    <line x1="8" y1="40" x2="25" y2="40" stroke="white" stroke-width="2"/>
  </g>
  
  <rect x="30" y="210" width="200" height="16" fill="#fff9e6" rx="3"/>
  <text x="35" y="221" class="body-text-bold">🟨 Who studied it?</text>
  <text x="35" y="238" class="body-text">ETH Zurich + Università della</text>
  <text x="35" y="248" class="body-text">Svizzera italiana</text>
  
  <rect x="30" y="258" width="200" height="16" fill="#fff9e6" rx="3"/>
  <text x="35" y="269" class="body-text-bold">🟨 What they found?</text>
  <text x="35" y="286" class="body-text">27 attack scenarios across major</text>
  <text x="35" y="296" class="body-text">password managers</text>
  
  <rect x="30" y="306" width="200" height="16" fill="#fff9e6" rx="3"/>
  <text x="35" y="317" class="body-text-bold">🟨 Which tools?</text>
  <text x="35" y="334" class="body-text">Bitwarden, Dashlane, LastPass, 1Password</text>
  
  <text x="30" y="355" class="body-text" font-style="italic" font-size="8">If the vendor infrastructure is fully compromised,</text>
  <text x="30" y="365" class="body-text" font-style="italic" font-size="8">"zero-knowledge" doesn't always hold.</text>
  
  <!-- Box 2: Threat Triangle (Yellow) -->
  <rect x="275" y="135" width="260" height="220" fill="#fff9e6" rx="8" stroke="#ffd966" stroke-width="2"/>
  <circle cx="293" cy="152" r="11" fill="#e6b800"/>
  <text x="293" y="157" class="section-number" text-anchor="middle" font-size="13">2</text>
  <text x="311" y="157" class="section-title">The Positioning Triangle</text>
  
  <text x="285" y="178" class="body-text-bold" font-size="10">Three Conditions That Break</text>
  <text x="285" y="190" class="body-text-bold" font-size="10">"Zero-Knowledge"</text>
  
  <!-- Venn Diagram with icons -->
  <circle cx="360" cy="245" r="32" fill="#ffd966" opacity="0.5"/>
  <circle cx="410" cy="245" r="32" fill="#ffd966" opacity="0.5"/>
  <circle cx="385" cy="285" r="32" fill="#ffd966" opacity="0.5"/>
  
  <!-- Icon 1: Key -->
  <g transform="translate(345, 230)">
    <circle cx="0" cy="0" r="5" fill="#2c3e50"/>
    <rect x="0" y="-2" width="12" height="4" fill="#2c3e50"/>
    <rect x="8" y="-4" width="2" height="2" fill="#2c3e50"/>
    <rect x="8" y="2" width="2" height="2" fill="#2c3e50"/>
  </g>
  <text x="345" y="255" class="body-text" font-size="7.5">Account</text>
  <text x="345" y="264" class="body-text" font-size="7.5">Recovery</text>
  
  <!-- Icon 2: Users -->
  <g transform="translate(405, 235)">
    <circle cx="-3" cy="0" r="4" fill="#2c3e50"/>
    <circle cx="3" cy="0" r="4" fill="#2c3e50"/>
  </g>
  <text x="398" y="255" class="body-text" font-size="7.5">Sharing</text>
  <text x="403" y="264" class="body-text" font-size="7.5">&amp; Org</text>
  
  <!-- Icon 3: Database -->
  <g transform="translate(385, 275)">
    <ellipse cx="0" cy="0" rx="8" ry="3" fill="none" stroke="#2c3e50" stroke-width="1.5"/>
    <line x1="-8" y1="0" x2="-8" y2="6" stroke="#2c3e50" stroke-width="1.5"/>
    <line x1="8" y1="0" x2="8" y2="6" stroke="#2c3e50" stroke-width="1.5"/>
    <ellipse cx="0" cy="6" rx="8" ry="3" fill="none" stroke="#2c3e50" stroke-width="1.5"/>
  </g>
  <text x="370" y="305" class="body-text" font-size="7.5">Metadata &amp;</text>
  <text x="367" y="314" class="body-text" font-size="7.5">Downgrade</text>
  
  <text x="285" y="330" class="body-text" font-size="8" font-style="italic">If one of these is exploited under a malicious</text>
  <text x="285" y="340" class="body-text" font-size="8" font-style="italic">server model, your vault isn't truly zero-knowledge.</text>
  
  <rect x="285" y="350" width="240" height="20" fill="#ffe6cc" rx="3"/>
  <text x="290" y="362" class="body-text-bold" font-size="8.5">ASK YOURSELF:</text>
  <text x="290" y="372" class="body-text" font-size="8">Why do I assume my SaaS password provider cannot be compromised?</text>
  
  <!-- Box 3: Attack Surface Map (Purple) -->
  <rect x="555" y="135" width="240" height="220" fill="#e8daef" rx="8" stroke="#c39bd3" stroke-width="2"/>
  <circle cx="573" cy="152" r="11" fill="#8e44ad"/>
  <text x="573" y="157" class="section-number" text-anchor="middle" font-size="13">3</text>
  <text x="591" y="157" class="section-title">The Audience Clarity Map</text>
  
  <text x="565" y="178" class="body-text-bold" font-size="10">You're Not Protecting One Thing.</text>
  <text x="565" y="190" class="body-text-bold" font-size="10">You're Protecting Three Layers:</text>
  
  <!-- Concentric circles with icons -->
  <circle cx="675" cy="260" r="55" fill="none" stroke="#8e44ad" stroke-width="2"/>
  <circle cx="675" cy="260" r="38" fill="none" stroke="#8e44ad" stroke-width="1.5"/>
  <circle cx="675" cy="260" r="22" fill="none" stroke="#8e44ad" stroke-width="1"/>
  
  <!-- Crown icon in center -->
  <g transform="translate(675, 260)">
    <polygon points="-8,-5 -4,-8 0,-5 4,-8 8,-5 6,2 -6,2" fill="#8e44ad"/>
    <circle cx="-6" cy="-6" r="1.5" fill="#ffd700"/>
    <circle cx="0" cy="-3" r="1.5" fill="#ffd700"/>
    <circle cx="6" cy="-6" r="1.5" fill="#ffd700"/>
  </g>
  
  <text x="565" y="320" class="body-text" font-size="8.5">▶ Crown-Jewel Secrets — root credentials,</text>
  <text x="570" y="330" class="body-text" font-size="8.5">signing keys, financial access</text>
  
  <text x="565" y="345" class="body-text" font-size="8.5">▶ Shared Org Vaults — team collections,</text>
  <text x="570" y="355" class="body-text" font-size="8.5">role-based access</text>
  
  <text x="565" y="370" class="body-text" font-size="8.5">▶ Recovery &amp; Metadata — backup codes,</text>
  <text x="570" y="380" class="body-text" font-size="8.5">device trust, downgrade paths</text>
  
  <text x="565" y="400" class="body-text" font-size="8" font-style="italic">Once you understand this, your hardening</text>
  <text x="565" y="410" class="body-text" font-size="8" font-style="italic">strategy becomes sharper and more targeted.</text>

  <!-- Box 4: Security OS (Yellow/Green) -->
  <rect x="20" y="375" width="240" height="240" fill="#f0f8e8" rx="8" stroke="#c5e1a5" stroke-width="2"/>
  <circle cx="38" cy="392" r="11" fill="#7cb342"/>
  <text x="38" y="397" class="section-number" text-anchor="middle" font-size="13">4</text>
  <text x="56" y="397" class="section-title">The Security OS</text>
  
  <text x="30" y="415" class="body-text" font-size="9">This is how I structure every</text>
  <text x="30" y="425" class="body-text" font-size="9">credential security review.</text>
  
  <rect x="30" y="435" width="220" height="18" fill="#7cb342" rx="3"/>
  <text x="140" y="447" class="body-text-bold" fill="white" text-anchor="middle" font-size="9.5">YOU NEED FOUR CONTROLS:</text>
  
  <!-- Shield icons for each control -->
  <g transform="translate(30, 465)">
    <rect x="0" y="0" width="18" height="18" fill="#7cb342" rx="2"/>
    <text x="9" y="13" class="body-text-bold" fill="white" text-anchor="middle" font-size="11">1</text>
  </g>
  <text x="55" y="477" class="body-text-bold" font-size="9.5">AUTHENTICATE</text>
  <text x="35" y="490" class="body-text" font-size="8.5">Argon2id KDF + FIDO2 hardware MFA</text>
  
  <g transform="translate(30, 500)">
    <rect x="0" y="0" width="18" height="18" fill="#7cb342" rx="2"/>
    <text x="9" y="13" class="body-text-bold" fill="white" text-anchor="middle" font-size="11">2</text>
  </g>
  <text x="55" y="512" class="body-text-bold" font-size="9.5">ISOLATE</text>
  <text x="35" y="525" class="body-text" font-size="8.5">Separate high-sensitivity secrets from</text>
  <text x="35" y="535" class="body-text" font-size="8.5">shared vaults</text>
  
  <g transform="translate(30, 545)">
    <rect x="0" y="0" width="18" height="18" fill="#7cb342" rx="2"/>
    <text x="9" y="13" class="body-text-bold" fill="white" text-anchor="middle" font-size="11">3</text>
  </g>
  <text x="55" y="557" class="body-text-bold" font-size="9.5">RECOVER SAFELY</text>
  <text x="35" y="570" class="body-text" font-size="8.5">Minimize cloud-assisted recovery paths</text>
  
  <g transform="translate(30, 580)">
    <rect x="0" y="0" width="18" height="18" fill="#7cb342" rx="2"/>
    <text x="9" y="13" class="body-text-bold" fill="white" text-anchor="middle" font-size="11">4</text>
  </g>
  <text x="55" y="592" class="body-text-bold" font-size="9.5">AUDIT</text>
  <text x="35" y="605" class="body-text" font-size="8.5">Review access logs, sharing permissions</text>
  <text x="35" y="615" class="body-text" font-size="8.5">quarterly</text>
  
  <text x="30" y="635" class="body-text" font-size="8" font-style="italic">When all four are in place, your posture</text>
  <text x="30" y="645" class="body-text" font-size="8" font-style="italic">becomes predictable (in a good way).</text>
  
  <!-- Box 5: Hardening Engine (Orange/Peach - Full Width) -->
  <rect x="275" y="375" width="520" height="240" fill="#ffe6cc" rx="8" stroke="#ffb366" stroke-width="2"/>
  <circle cx="293" cy="392" r="11" fill="#ff8c1a"/>
  <text x="293" y="397" class="section-number" text-anchor="middle" font-size="13">5</text>
  <text x="311" y="397" class="section-title">The Hardening Engine</text>
  
  <text x="285" y="415" class="body-text-bold" font-size="9">THIS IS THE SYSTEM I USE WITH STARTUPS &amp; AI-DRIVEN TEAMS</text>
  
  <!-- Four step boxes with icons -->
  <g transform="translate(285, 430)">
    <!-- Step 1 -->
    <rect x="0" y="0" width="115" height="22" fill="#ff8c1a" rx="3"/>
    <text x="57" y="14" class="body-text-bold" fill="white" text-anchor="middle" font-size="9">Step 1 — Assess</text>
    <text x="57" y="25" class="body-text" text-anchor="middle" font-size="8">(30 min)</text>
    
    <!-- Magnifying glass icon -->
    <circle cx="10" cy="45" r="6" fill="none" stroke="#ff8c1a" stroke-width="2"/>
    <line x1="14" y1="49" x2="18" y2="53" stroke="#ff8c1a" stroke-width="2"/>
    
    <text x="5" y="65" class="body-text" font-size="8">Audit KDF settings,</text>
    <text x="5" y="74" class="body-text" font-size="8">MFA type, recovery</text>
    <text x="5" y="83" class="body-text" font-size="8">options</text>
    
    <!-- Step 2 -->
    <rect x="125" y="0" width="115" height="22" fill="#ff8c1a" rx="3"/>
    <text x="182" y="14" class="body-text-bold" fill="white" text-anchor="middle" font-size="9">Step 2 — Configure</text>
    <text x="182" y="25" class="body-text" text-anchor="middle" font-size="8">(2 hrs)</text>
    
    <!-- Gear icon -->
    <circle cx="135" cy="45" r="6" fill="none" stroke="#ff8c1a" stroke-width="2"/>
    <circle cx="135" cy="45" r="3" fill="#ff8c1a"/>
    
    <text x="130" y="65" class="body-text" font-size="8">Apply Argon2id,</text>
    <text x="130" y="74" class="body-text" font-size="8">enroll FIDO2 keys,</text>
    <text x="130" y="83" class="body-text" font-size="8">restrict sharing</text>
    
    <!-- Step 3 -->
    <rect x="250" y="0" width="115" height="22" fill="#ff8c1a" rx="3"/>
    <text x="307" y="14" class="body-text-bold" fill="white" text-anchor="middle" font-size="9">Step 3 — Test</text>
    <text x="307" y="25" class="body-text" text-anchor="middle" font-size="8">(weekly)</text>
    
    <!-- Checkmark icon -->
    <polyline points="255,48 260,53 268,42" fill="none" stroke="#ff8c1a" stroke-width="2"/>
    
    <text x="255" y="65" class="body-text" font-size="8">Simulate recovery</text>
    <text x="255" y="74" class="body-text" font-size="8">flow, verify no</text>
    <text x="255" y="83" class="body-text" font-size="8">cloud bypass</text>
    
    <!-- Step 4 -->
    <rect x="375" y="0" width="115" height="22" fill="#ff8c1a" rx="3"/>
    <text x="432" y="14" class="body-text-bold" fill="white" text-anchor="middle" font-size="9">Step 4 — Review</text>
    <text x="432" y="25" class="body-text" text-anchor="middle" font-size="8">(monthly)</text>
    
    <!-- Calendar icon -->
    <rect x="378" y="40" width="14" height="14" fill="none" stroke="#ff8c1a" stroke-width="2" rx="1"/>
    <line x1="381" y1="40" x2="381" y2="37" stroke="#ff8c1a" stroke-width="2"/>
    <line x1="389" y1="40" x2="389" y2="37" stroke="#ff8c1a" stroke-width="2"/>
    
    <text x="380" y="65" class="body-text" font-size="8">Check sharing</text>
    <text x="380" y="74" class="body-text" font-size="8">permissions, rotate</text>
    <text x="380" y="83" class="body-text" font-size="8">crown-jewel secrets</text>
  </g>
  
  <rect x="285" y="590" width="500" height="18" fill="#fff" rx="3" stroke="#ff8c1a" stroke-width="1"/>
  <text x="535" y="602" class="body-text-bold" text-anchor="middle" font-size="8.5">WHEN YOU FOLLOW THIS RHYTHM, YOUR CREDENTIAL SECURITY</text>
  <text x="535" y="615" class="body-text-bold" text-anchor="middle" font-size="8.5">COMPOUNDS AUTOMATICALLY.</text>

  <!-- Box 6: Trust Ladder (Pink) -->
  <rect x="20" y="635" width="240" height="240" fill="#fce4ec" rx="8" stroke="#f8bbd0" stroke-width="2"/>
  <circle cx="38" cy="652" r="11" fill="#e91e63"/>
  <text x="38" y="657" class="section-number" text-anchor="middle" font-size="13">6</text>
  <text x="56" y="657" class="section-title">The Trust Ladder Framework</text>
  
  <text x="30" y="675" class="body-text-bold" font-size="10">"Zero-Knowledge" Trust Is Built</text>
  <text x="30" y="687" class="body-text-bold" font-size="10">in 5 Layers:</text>
  
  <!-- Pyramid with 5 levels -->
  <polygon points="130,710 75,790 185,790" fill="none" stroke="#e91e63" stroke-width="2"/>
  <line x1="82" y1="774" x2="178" y2="774" stroke="#e91e63" stroke-width="1.5"/>
  <line x1="89" y1="758" x2="171" y2="758" stroke="#e91e63" stroke-width="1.5"/>
  <line x1="96" y1="742" x2="164" y2="742" stroke="#e91e63" stroke-width="1.5"/>
  <line x1="103" y1="726" x2="157" y2="726" stroke="#e91e63" stroke-width="1.5"/>
  
  <!-- Layer labels -->
  <text x="30" y="790" class="body-text" font-size="8">▲ 5 — Peppered Secrets</text>
  <text x="35" y="800" class="body-text" font-size="7.5">(store part outside vault)</text>
  
  <text x="30" y="815" class="body-text" font-size="8">▲ 4 — Self-Hosted Option</text>
  <text x="35" y="825" class="body-text" font-size="7.5">(Vaultwarden / KeePass)</text>
  
  <text x="30" y="840" class="body-text" font-size="8">▲ 3 — Hardware MFA (FIDO2 key)</text>
  <text x="30" y="853" class="body-text" font-size="8">▲ 2 — Strong KDF (Argon2id)</text>
  <text x="30" y="866" class="body-text" font-size="8">▲ 1 — Strong Master Password</text>
  
  <text x="30" y="885" class="body-text" font-style="italic" font-size="8">If your setup skips layers, your blast radius</text>
  <text x="30" y="895" class="body-text" font-style="italic" font-size="8">from a vendor compromise is larger than it</text>
  <text x="30" y="905" class="body-text" font-style="italic" font-size="8">needs to be.</text>
  
  <!-- Box 7: Feedback Loop (Teal) -->
  <rect x="275" y="635" width="240" height="240" fill="#e0f2f1" rx="8" stroke="#80cbc4" stroke-width="2"/>
  <circle cx="293" cy="652" r="11" fill="#00897b"/>
  <text x="293" y="657" class="section-number" text-anchor="middle" font-size="13">7</text>
  <text x="311" y="657" class="section-title">The Content Feedback Loop</text>
  
  <text x="285" y="675" class="body-text-bold" font-size="10">Your threat model will always tell</text>
  <text x="285" y="687" class="body-text-bold" font-size="10">you what to fix next.</text>
  <text x="285" y="699" class="body-text" font-size="9">Most people don't listen.</text>
  
  <rect x="285" y="712" width="220" height="18" fill="#80cbc4" rx="3"/>
  <text x="395" y="724" class="body-text-bold" fill="white" text-anchor="middle" font-size="9">EACH QUARTER, ANALYSE:</text>
  
  <!-- Checklist items with checkboxes -->
  <rect x="290" y="740" width="10" height="10" fill="none" stroke="#00897b" stroke-width="1.5" rx="1"/>
  <text x="305" y="749" class="body-text" font-size="8.5">Has your vendor had any security</text>
  <text x="305" y="759" class="body-text" font-size="8.5">incidents or disclosures?</text>
  
  <rect x="290" y="770" width="10" height="10" fill="none" stroke="#00897b" stroke-width="1.5" rx="1"/>
  <text x="305" y="779" class="body-text" font-size="8.5">Are any shared vaults larger than</text>
  <text x="305" y="789" class="body-text" font-size="8.5">they need to be?</text>
  
  <rect x="290" y="800" width="10" height="10" fill="none" stroke="#00897b" stroke-width="1.5" rx="1"/>
  <text x="305" y="809" class="body-text" font-size="8.5">Is cloud-assisted recovery still</text>
  <text x="305" y="819" class="body-text" font-size="8.5">enabled unnecessarily?</text>
  
  <rect x="290" y="830" width="10" height="10" fill="none" stroke="#00897b" stroke-width="1.5" rx="1"/>
  <text x="305" y="839" class="body-text" font-size="8.5">Have hardware MFA keys been</text>
  <text x="305" y="849" class="body-text" font-size="8.5">distributed to all critical users?</text>
  
  <!-- Process flow -->
  <rect x="360" y="860" width="70" height="14" fill="#00897b" rx="2"/>
  <text x="395" y="870" class="body-text-bold" fill="white" text-anchor="middle" font-size="8">MEASURE</text>
  <text x="395" y="882" class="body-text-bold" text-anchor="middle" font-size="10">↓</text>
  <rect x="360" y="888" width="70" height="14" fill="#00897b" rx="2"/>
  <text x="395" y="898" class="body-text-bold" fill="white" text-anchor="middle" font-size="8">LEARN</text>
  <text x="395" y="910" class="body-text-bold" text-anchor="middle" font-size="10">↓</text>
  <rect x="360" y="916" width="70" height="14" fill="#00897b" rx="2"/>
  <text x="395" y="926" class="body-text-bold" fill="white" text-anchor="middle" font-size="8">IMPROVE</text>
  
  <!-- Box 8: 3-Level Risk Funnel (Purple) -->
  <rect x="555" y="635" width="240" height="240" fill="#e8daef" rx="8" stroke="#c39bd3" stroke-width="2"/>
  <circle cx="573" cy="652" r="11" fill="#8e44ad"/>
  <text x="573" y="657" class="section-number" text-anchor="middle" font-size="13">8</text>
  <text x="591" y="657" class="section-title">The 3-Level Risk Funnel</text>
  
  <text x="565" y="675" class="body-text-bold" font-size="10">A strong security posture is built</text>
  <text x="565" y="687" class="body-text-bold" font-size="10">to withstand compromise — not</text>
  <text x="565" y="699" class="body-text-bold" font-size="10">just prevent it.</text>
  
  <!-- Funnel graphic -->
  <polygon points="625,720 735,720 725,760 635,760" fill="#c39bd3" opacity="0.4"/>
  <text x="680" y="743" class="body-text-bold" text-anchor="middle" font-size="9">TOP OF FUNNEL</text>
  
  <polygon points="635,760 725,760 715,800 645,800" fill="#c39bd3" opacity="0.6"/>
  <text x="680" y="783" class="body-text-bold" text-anchor="middle" font-size="9">MIDDLE OF FUNNEL</text>
  
  <polygon points="645,800 715,800 705,835 655,835" fill="#c39bd3" opacity="0.8"/>
  <text x="680" y="820" class="body-text-bold" text-anchor="middle" font-size="9">BOTTOM OF FUNNEL</text>
  
  <!-- Labels -->
  <text x="565" y="735" class="body-text-bold" font-size="8.5">TOP</text>
  <text x="565" y="745" class="body-text" font-size="8">Preventive controls</text>
  <text x="565" y="755" class="body-text" font-size="7.5">(MFA, strong KDF, password hygiene)</text>
  
  <text x="565" y="775" class="body-text-bold" font-size="8.5">MIDDLE</text>
  <text x="565" y="785" class="body-text" font-size="8">Containment controls</text>
  <text x="565" y="795" class="body-text" font-size="7.5">(vault segmentation, peppered secrets)</text>
  
  <text x="565" y="815" class="body-text-bold" font-size="8.5">BOTTOM</text>
  <text x="565" y="825" class="body-text" font-size="8">Recovery controls</text>
  <text x="565" y="835" class="body-text" font-size="7.5">(offline backup, incident response plan)</text>
  
  <text x="565" y="855" class="body-text" font-size="8" font-style="italic">This is how you turn a vendor compromise</text>
  <text x="565" y="865" class="body-text" font-size="8" font-style="italic">into a contained incident — not a catastrophe.</text>

  <!-- Box 9: Security Scorecard (Light Green - Full Width) -->
  <rect x="20" y="895" width="775" height="200" fill="#e8f5e9" rx="8" stroke="#a5d6a7" stroke-width="2"/>
  <circle cx="38" cy="912" r="11" fill="#66bb6a"/>
  <text x="38" y="917" class="section-number" text-anchor="middle" font-size="13">9</text>
  <text x="56" y="917" class="section-title">The Security Scorecard</text>
  
  <text x="30" y="935" class="body-text-bold" font-size="10">Don't get overwhelmed by a volume of metrics.</text>
  <text x="30" y="947" class="body-text-bold" font-size="10">In reality, you need 5 metrics.</text>
  
  <!-- Computer monitor graphic with chart -->
  <g transform="translate(550, 935)">
    <rect x="0" y="0" width="200" height="130" fill="white" rx="5" stroke="#66bb6a" stroke-width="2"/>
    
    <!-- Chart title -->
    <text x="100" y="20" class="body-text-bold" text-anchor="middle" font-size="9">Security Metrics Dashboard</text>
    
    <!-- Bar chart -->
    <rect x="20" y="85" width="25" height="35" fill="#4CAF50"/>
    <rect x="50" y="65" width="25" height="55" fill="#66bb6a"/>
    <rect x="80" y="45" width="25" height="75" fill="#81c784"/>
    <rect x="110" y="75" width="25" height="45" fill="#a5d6a7"/>
    <rect x="140" y="55" width="25" height="65" fill="#c8e6c9"/>
    
    <!-- Chart labels -->
    <text x="32" y="100" class="body-text" text-anchor="middle" font-size="6">KDF</text>
    <text x="62" y="100" class="body-text" text-anchor="middle" font-size="6">MFA</text>
    <text x="92" y="100" class="body-text" text-anchor="middle" font-size="6">REC</text>
    <text x="122" y="100" class="body-text" text-anchor="middle" font-size="6">ISO</text>
    <text x="152" y="100" class="body-text" text-anchor="middle" font-size="6">AUD</text>
    
    <!-- Monitor stand -->
    <rect x="85" y="130" width="30" height="5" fill="#66bb6a"/>
    <rect x="70" y="135" width="60" height="3" fill="#66bb6a"/>
  </g>
  
  <text x="30" y="975" class="body-text-bold" font-size="10">If they tick in the right direction,</text>
  <text x="30" y="987" class="body-text-bold" font-size="10">your posture is solid.</text>
  <text x="30" y="1003" class="body-text-bold" font-size="10">If they aren't consistently,</text>
  <text x="30" y="1015" class="body-text-bold" font-size="10">something needs adjusting.</text>
  
  <!-- Scorecard table -->
  <rect x="30" y="1030" width="500" height="55" fill="white" rx="5" stroke="#66bb6a" stroke-width="1"/>
  
  <!-- Header row -->
  <rect x="30" y="1030" width="350" height="22" fill="#66bb6a" rx="5 0 0 0"/>
  <text x="205" y="1045" class="body-text-bold" fill="white" text-anchor="middle" font-size="9.5">Metric</text>
  <rect x="380" y="1030" width="150" height="22" fill="#66bb6a" rx="0 5 0 0"/>
  <text x="455" y="1045" class="body-text-bold" fill="white" text-anchor="middle" font-size="9.5">Status</text>
  
  <!-- Rows -->
  <line x1="30" y1="1052" x2="530" y2="1052" stroke="#e0e0e0" stroke-width="1"/>
  <text x="40" y="1065" class="body-text" font-size="9">KDF = Argon2id?</text>
  <text x="455" y="1065" class="body-text" text-anchor="middle" font-size="9">✅ / ❌</text>
  
  <line x1="30" y1="1070" x2="530" y2="1070" stroke="#e0e0e0" stroke-width="1"/>
  <text x="40" y="1083" class="body-text" font-size="9">FIDO2 MFA enforced?</text>
  <text x="455" y="1083" class="body-text" text-anchor="middle" font-size="9">✅ / ❌</text>
  
  <text x="30" y="1105" class="body-text" font-style="italic" font-size="8">If they tick green, your posture is solid. If not — you know exactly where to start.</text>
  
  <!-- Footer CTA -->
  <rect x="20" y="1115" width="775" height="25" fill="#2c3e50" rx="5"/>
  <text x="408" y="1132" class="body-text-bold" fill="white" text-anchor="middle" font-size="9.5">📎 Found this useful? Save it, repost it, or drop a comment — I read everything.</text>
  
</svg>
